<?xml version="1.0" encoding="UTF-8"?>
<svg width="296px" height="296px" viewBox="0 0 296 296" version="1.1" xmlns="http://www.w3.org/2000/svg" xmlns:xlink="http://www.w3.org/1999/xlink">
    <!-- Generator: Sketch 61.2 (89653) - https://sketch.com -->
    <title>ashorelogo</title>
    <desc>Created with Sketch.</desc>
    <defs>
        <rect id="path-1" x="0" y="0" width="295.838" height="295.839"></rect>
        <rect id="path-3" x="0" y="0" width="295.838" height="295.839"></rect>
    </defs>
    <g id="Page-1" stroke="none" stroke-width="1" fill="none" fill-rule="evenodd">
        <g id="ashorelogo">
            <rect id="Rectangle" fill="#FFFFFF" x="150" y="142" width="94" height="90"></rect>
            <path d="M144.82,50.215 C204.048,51.225 239.43,61.003 256.874,67.677 C232.078,34.517 192.5,13.053 147.909,13.053 C105.422,13.053 67.498,32.548 42.563,63.071 C55.536,57.482 85.023,49.194 144.82,50.215 L144.82,50.215 Z" id="Path" fill="#49476E" fill-rule="nonzero"></path>
            <path d="M144.82,107.606 C202.129,97.689 256.46,102.175 276.365,104.435 C271.745,91.126 265.15,78.743 256.874,67.676 C239.43,61.002 204.048,51.224 144.82,50.214 C85.023,49.194 55.536,57.482 42.563,63.07 C30.327,78.048 21.213,95.674 16.236,114.968 C28.613,117.368 65.518,121.329 144.82,107.606 L144.82,107.606 Z" id="Path" fill="#E45272" fill-rule="nonzero"></path>
            <path d="M57.578,83.797 C63.655,80.66 70.803,80.521 77.234,82.634 C80.618,83.745 83.798,85.449 86.676,87.538 C87.262,87.964 89.839,90.12 89.839,90.12 C89.839,90.12 92.101,87.902 92.596,87.464 C102.789,78.436 117.165,73.417 130.116,79.51 C125.156,79.759 120.5,80.009 115.756,81.677 C111.34,83.231 107.239,85.555 103.49,88.345 C98.208,92.277 93.987,97.039 89.945,102.172 C86.906,98.223 83.858,94.528 79.853,91.471 C76.722,89.079 73.275,87.114 69.553,85.805 C65.599,84.415 61.703,84.147 57.578,83.797 C58.959,83.084 58.361,83.863 57.578,83.797 L57.578,83.797 Z" id="Path" fill="#5D5E60" fill-rule="nonzero"></path>
            <path d="M18.28,182.199 C33.952,163.865 78.827,122.897 145.399,156.92 C151.156,160.087 156.785,162.903 162.282,165.417 L171.894,148.065 C171.894,148.065 178.508,136.502 185.935,133.568 C193.363,130.635 198.183,131.829 202.934,129.787 C207.685,127.746 209.827,126.303 213.122,122.465 C215.158,120.093 221.429,109.34 225.925,101.47 C202.432,101.244 174.018,102.554 144.82,107.607 C68.705,120.778 31.653,117.659 17.854,115.265 C15.228,125.721 13.825,136.66 13.825,147.918 C13.825,159.765 15.379,171.253 18.28,182.199 L18.28,182.199 Z" id="Path" fill="#F8A79B" fill-rule="nonzero"></path>
            <path d="M255.587,105.214 C253.9,106.224 252.494,105.485 252.494,105.485 C252.494,105.485 236.675,132.784 235.837,134.177 C234.999,135.57 232.374,142.689 233.634,147.47 C234.447,149.711 235.56,152.472 238.095,161.195 C240.63,169.918 234.816,180.936 234.816,180.936 L233.222,183.836 C254.014,184.979 269.543,181.859 278.284,179.348 C280.719,169.264 282.013,158.741 282.013,147.917 C282.013,132.636 279.437,117.945 274.708,104.251 C270.27,103.767 264.422,103.211 257.443,102.719 C257.067,103.687 256.438,104.704 255.587,105.214 L255.587,105.214 Z" id="Path" fill="#F8A79B" fill-rule="nonzero"></path>
            <path d="M233.222,183.837 L229.539,190.536 L219.968,207.945 C239.841,209.518 255.7,211.297 265.383,212.495 C271.074,202.191 275.453,191.069 278.284,179.349 C269.543,181.86 254.014,184.979 233.222,183.837 L233.222,183.837 Z" id="Path" fill="#F8D99B" fill-rule="nonzero"></path>
            <path d="M138.957,187.71 C143.559,186.997 149.243,188.959 149.243,188.959 L153.545,181.19 L162.282,165.417 C156.785,162.903 151.156,160.087 145.399,156.92 C78.827,122.898 33.952,163.865 18.28,182.199 C21.087,192.789 25.158,202.869 30.326,212.266 C58.139,207.666 87.507,205.481 115.892,204.793 C122.328,196.783 127.946,189.415 138.957,187.71 L138.957,187.71 Z" id="Path" fill="#F8D99B" fill-rule="nonzero"></path>
            <path d="M81.058,227.338 C100.027,224.043 108.499,213.994 115.892,204.794 C87.507,205.482 58.139,207.667 30.326,212.267 C34.608,220.055 39.636,227.378 45.321,234.132 L81.058,227.338 L81.058,227.338 Z" id="Path" fill="#9BB6C2" fill-rule="nonzero"></path>
            <g id="Group">
                <g id="Clipped">
                    <mask id="mask-2" fill="white">
                        <use xlink:href="#path-1"></use>
                    </mask>
                    <g id="SVGID_1_"></g>
                    <path d="M252.239,232.041 C257.167,225.941 261.567,219.4 265.383,212.495 C265.83,212.55 266.266,212.603 266.69,212.657 C257.163,211.463 240.759,209.592 219.968,207.945 L214.781,217.382 C232.062,227.069 246.827,230.873 252.239,232.041 L252.239,232.041 Z" id="Path" fill="#9BB6C2" fill-rule="nonzero" mask="url(#mask-2)"></path>
                </g>
                <g id="Clipped">
                    <mask id="mask-4" fill="white">
                        <use xlink:href="#path-3"></use>
                    </mask>
                    <g id="SVGID_1_"></g>
                    <path d="M265.383,212.495 C261.567,219.4 257.167,225.941 252.239,232.041 C246.827,230.873 232.062,227.069 214.781,217.382 L219.968,207.945 L229.539,190.536 L233.222,183.837 L234.816,180.937 C234.816,180.937 240.63,169.918 238.095,161.196 C235.56,152.473 234.447,149.713 233.634,147.471 C232.374,142.69 234.999,135.571 235.837,134.178 C236.675,132.784 252.494,105.486 252.494,105.486 C252.494,105.486 253.9,106.224 255.587,105.215 C256.438,104.705 257.067,103.688 257.443,102.721 C257.639,102.217 257.77,101.725 257.82,101.33 C258.05,99.483 256.9,97.981 256.019,97.476 C255.137,96.972 237.218,86.493 236.114,85.847 C235.011,85.201 233.846,85.064 232.347,85.439 C231.096,85.751 229.556,87.107 229.442,89.06 C229.113,91.314 230.805,92.839 230.805,92.839 C230.805,92.839 228.703,96.606 225.925,101.47 C221.429,109.34 215.158,120.093 213.122,122.465 C209.827,126.303 207.685,127.746 202.934,129.787 C198.183,131.829 193.363,130.636 185.935,133.568 C178.508,136.502 171.894,148.065 171.894,148.065 L162.282,165.417 L153.545,181.19 L149.243,188.959 C149.243,188.959 143.559,186.997 138.957,187.71 C127.946,189.415 122.328,196.783 115.892,204.794 C108.499,213.994 100.027,224.043 81.058,227.338 L45.321,234.132 C39.636,227.378 34.608,220.055 30.326,212.267 C25.159,202.87 21.087,192.789 18.28,182.2 C15.379,171.254 13.825,159.765 13.825,147.919 C13.825,136.66 15.228,125.722 17.854,115.266 C32.473,57.056 85.24,13.825 147.92,13.825 C206.577,13.825 256.553,51.686 274.708,104.252 C279.437,117.946 282.013,132.637 282.013,147.918 C282.013,158.741 280.719,169.265 278.284,179.349 C275.453,191.069 271.074,202.191 265.383,212.495 M198.979,210.415 C195.84,208.957 192.658,207.454 189.472,205.945 L189.472,205.945 C186.325,204.456 183.174,202.962 180.057,201.502 C180.321,200.885 180.589,200.261 180.853,199.647 C182.784,195.234 184.41,190.776 186.131,186.526 C187.499,182.904 188.794,179.382 190.003,175.984 C191.66,171.332 193.152,166.92 194.411,162.871 C195.647,159.048 196.667,155.559 197.527,152.494 C218.901,158.833 226.956,177.255 226.956,177.255 C226.956,177.255 225.02,179.41 222.012,182.84 C216.978,188.582 208.94,197.894 201.936,206.665 C200.926,207.929 199.934,209.184 198.979,210.415 L198.979,210.415 Z M176.626,199.903 C172.671,198.074 168.806,196.334 165.103,194.759 C168.752,188.051 173.072,179.403 176.926,171.524 C182.043,161.063 186.339,151.958 187.145,150.561 C190.393,150.828 193.397,151.377 196.196,152.122 C195.064,155.07 193.755,158.425 192.307,162.125 C190.958,165.519 189.495,169.194 187.948,173.083 C187.678,173.741 187.402,174.414 187.126,175.084 C185.784,178.352 184.388,181.748 182.949,185.25 C181.147,189.438 179.284,193.767 177.392,198.165 C177.138,198.741 176.88,199.326 176.626,199.903 L176.626,199.903 Z M166.303,1.162 C85.251,-8.991 11.316,48.483 1.163,129.535 C-8.99,210.587 48.484,284.522 129.536,294.676 C210.587,304.829 284.524,247.355 294.677,166.303 C304.829,85.252 247.354,11.315 166.303,1.162 L166.303,1.162 Z" id="Shape" fill="#5D5E60" fill-rule="nonzero" mask="url(#mask-4)"></path>
                </g>
            </g>
            <path d="M119.641,116.027 C124.421,113.56 130.044,113.451 135.102,115.112 C137.764,115.987 140.265,117.327 142.53,118.97 C142.991,119.305 145.017,121.001 145.017,121.001 C145.017,121.001 146.797,119.256 147.186,118.911 C155.204,111.809 166.512,107.861 176.699,112.654 C172.797,112.849 169.134,113.047 165.403,114.359 C161.929,115.581 158.703,117.409 155.755,119.603 C151.6,122.696 148.28,126.443 145.1,130.48 C142.71,127.374 140.312,124.467 137.162,122.062 C134.699,120.181 131.987,118.635 129.059,117.605 C125.951,116.514 122.886,116.304 119.641,116.027 C120.728,115.467 120.257,116.08 119.641,116.027 L119.641,116.027 Z" id="Path" fill="#5D5E60" fill-rule="nonzero"></path>
        </g>
    </g>
</svg>