<svg width="253" height="64" viewBox="0 0 253 64" fill="none" xmlns="http://www.w3.org/2000/svg">
<path d="M97.8969 36.5782H92.895V49.2615H87V18H100.353C102.08 18 103.628 18.2084 104.998 18.6252C106.367 19.042 107.528 19.6375 108.481 20.4116C109.434 21.1559 110.163 22.0789 110.669 23.1805C111.205 24.2821 111.473 25.5028 111.473 26.8425C111.473 29.2541 110.818 31.2042 109.508 32.6929C108.198 34.1518 106.471 35.2682 104.328 36.0423L111.875 49.2615H105.132L97.8969 36.5782ZM92.895 31.3978H100.353C102.169 31.3978 103.494 31.0256 104.328 30.2813C105.161 29.537 105.578 28.5396 105.578 27.2891C105.578 26.0387 105.161 25.0413 104.328 24.297C103.494 23.5526 102.169 23.1805 100.353 23.1805H92.895V31.3978Z" fill="#021732"/>
<path d="M117.628 39.5258C117.806 41.2228 118.447 42.5775 119.548 43.5897C120.65 44.5722 122.034 45.0635 123.702 45.0635C125.25 45.0635 126.5 44.7062 127.453 43.9917C128.406 43.2474 129.195 42.25 129.82 40.9995L134.018 43.4111C132.976 45.5845 131.606 47.2071 129.909 48.279C128.242 49.3508 126.143 49.8867 123.612 49.8867C122.064 49.8867 120.605 49.6039 119.236 49.0382C117.866 48.4725 116.66 47.6835 115.618 46.6712C114.576 45.6292 113.743 44.3936 113.117 42.9645C112.522 41.5354 112.224 39.9426 112.224 38.186C112.224 36.4294 112.522 34.8365 113.117 33.4074C113.743 31.9783 114.576 30.7577 115.618 29.7454C116.69 28.7033 117.926 27.8995 119.325 27.3338C120.754 26.7681 122.272 26.4853 123.88 26.4853C125.458 26.4853 126.902 26.7681 128.212 27.3338C129.552 27.8697 130.698 28.6289 131.651 29.6114C132.604 30.5939 133.348 31.7699 133.884 33.1395C134.42 34.4793 134.688 35.953 134.688 37.5607V39.5258H117.628ZM123.702 30.7725C122.183 30.7725 120.888 31.2191 119.816 32.1123C118.774 33.0055 118.045 34.1071 117.628 35.4171H129.507C129.239 33.988 128.599 32.8566 127.587 32.023C126.604 31.1894 125.309 30.7725 123.702 30.7725Z" fill="#021732"/>
<path d="M158.723 49.2615H153.096V36.4889C153.096 35.0301 152.739 33.8838 152.024 33.0502C151.31 32.1868 150.163 31.755 148.585 31.755C147.097 31.755 145.861 32.3356 144.879 33.4968C143.926 34.6281 143.45 36.1317 143.45 38.0073V49.2615H137.823V27.1105H143.45V30.6832C144.283 29.403 145.34 28.3907 146.62 27.6464C147.901 26.8723 149.345 26.4853 150.952 26.4853C153.334 26.4853 155.225 27.1849 156.624 28.5842C158.023 29.9836 158.723 31.8444 158.723 34.1666V49.2615Z" fill="#021732"/>
<path d="M160.167 27.1105H163.606V21.1261H169.233V27.1105H174.056V31.6657H169.233V41.7587C169.233 42.8901 169.486 43.6939 169.992 44.1703C170.498 44.6467 171.183 44.8849 172.047 44.8849C172.463 44.8849 172.821 44.8551 173.118 44.7955C173.416 44.736 173.684 44.6765 173.922 44.6169L174.458 49.2615C173.952 49.4401 173.357 49.589 172.672 49.7081C172.017 49.8272 171.362 49.8867 170.707 49.8867C169.754 49.8867 168.846 49.7676 167.983 49.5294C167.119 49.321 166.36 48.9489 165.705 48.4129C165.05 47.877 164.529 47.1625 164.142 46.2693C163.785 45.3463 163.606 44.2001 163.606 42.8305V31.6657H160.167V27.1105Z" fill="#021732"/>
<path d="M176.88 27.1105H182.507V39.5704C182.507 41.1781 182.865 42.4286 183.579 43.3218C184.294 44.1852 185.44 44.6169 187.018 44.6169C188.596 44.6169 189.846 44.0512 190.769 42.9199C191.692 41.7885 192.154 40.3296 192.154 38.5432V27.1105H197.781V49.2615H192.154V45.778C191.439 47.1178 190.471 48.145 189.251 48.8595C188.06 49.5443 186.675 49.8867 185.098 49.8867C183.936 49.8867 182.85 49.6932 181.837 49.3061C180.855 48.9191 179.991 48.3534 179.247 47.6091C178.503 46.835 177.922 45.8971 177.505 44.7955C177.089 43.6642 176.88 42.3542 176.88 40.8655V27.1105Z" fill="#021732"/>
<path d="M216.671 49.2615C216.492 49.0233 216.269 48.6214 216.001 48.0557C215.733 47.4602 215.599 46.6861 215.599 45.7334C214.825 47.1327 213.798 48.1748 212.518 48.8595C211.237 49.5443 209.793 49.8867 208.186 49.8867C207.084 49.8867 206.072 49.7229 205.149 49.3954C204.256 49.0679 203.482 48.6065 202.827 48.011C202.172 47.4156 201.651 46.6861 201.263 45.8227C200.906 44.9593 200.728 44.0066 200.728 42.9645C200.728 41.8331 200.936 40.8506 201.353 40.017C201.799 39.1536 202.38 38.4242 203.094 37.8287C203.839 37.2332 204.687 36.7569 205.64 36.3996C206.593 36.0423 207.59 35.7893 208.632 35.6404L215.286 34.6132V33.7647C215.286 32.6929 214.944 31.8741 214.259 31.3085C213.604 30.713 212.592 30.4153 211.222 30.4153C209.912 30.4153 208.915 30.6683 208.23 31.1745C207.575 31.6508 207.248 32.2314 207.248 32.9162C207.248 33.0055 207.248 33.0799 207.248 33.1395C207.248 33.199 207.278 33.3032 207.337 33.4521L202.291 35.1491C202.023 34.5835 201.889 33.9582 201.889 33.2735C201.889 32.41 202.097 31.5764 202.514 30.7725C202.931 29.9389 203.526 29.2095 204.3 28.5842C205.104 27.959 206.087 27.4529 207.248 27.0658C208.409 26.6788 209.734 26.4853 211.222 26.4853C214.349 26.4853 216.745 27.1551 218.413 28.4949C220.08 29.8049 220.914 31.8146 220.914 34.5239V43.7684C220.914 45.0486 221.018 46.0907 221.226 46.8945C221.464 47.6984 221.851 48.4874 222.387 49.2615H216.671ZM209.525 45.3315C211.163 45.3315 212.532 44.7955 213.634 43.7237C214.736 42.6519 215.286 41.0442 215.286 38.9005V38.4986L209.927 39.3918C207.456 39.8086 206.221 40.8953 206.221 42.6519C206.221 43.5451 206.518 44.215 207.114 44.6616C207.739 45.1082 208.543 45.3315 209.525 45.3315Z" fill="#021732"/>
<path d="M224.966 18H230.593V49.2615H224.966V18Z" fill="#021732"/>
<path d="M239.492 32.5589C239.492 33.9285 241.234 34.9705 244.718 35.6851C247.338 36.221 249.228 37.0248 250.389 38.0967C251.55 39.1685 252.131 40.6422 252.131 42.5179C252.131 43.56 251.923 44.5276 251.506 45.4208C251.119 46.314 250.553 47.1029 249.809 47.7877C249.064 48.4427 248.141 48.9489 247.04 49.3061C245.968 49.6932 244.747 49.8867 243.378 49.8867C241.978 49.8867 240.728 49.6932 239.626 49.3061C238.555 48.9489 237.602 48.4725 236.768 47.877C235.964 47.2518 235.265 46.5373 234.669 45.7334C234.074 44.9295 233.597 44.0959 233.24 43.2325L237.751 40.3743C238.227 41.7736 238.942 42.9199 239.894 43.813C240.847 44.7062 242.038 45.1528 243.467 45.1528C244.331 45.1528 245.12 44.9444 245.834 44.5276C246.578 44.1108 246.951 43.5004 246.951 42.6966C246.951 41.9522 246.563 41.3717 245.789 40.9548C245.045 40.538 243.854 40.1659 242.217 39.8384C241.145 39.63 240.133 39.3471 239.18 38.9898C238.227 38.6028 237.408 38.1264 236.724 37.5607C236.039 36.9951 235.488 36.3401 235.071 35.5957C234.684 34.8216 234.491 33.9285 234.491 32.9162C234.491 31.8741 234.714 30.9512 235.161 30.1473C235.637 29.3434 236.247 28.6736 236.992 28.1376C237.766 27.6017 238.644 27.1998 239.626 26.9318C240.639 26.6341 241.681 26.4853 242.753 26.4853C245.164 26.4853 247.07 26.9467 248.469 27.8697C249.868 28.7927 251.015 30.192 251.908 32.0677L247.844 34.4793C247.367 33.2586 246.697 32.3058 245.834 31.6211C244.971 30.9363 243.973 30.5939 242.842 30.5939C241.919 30.5939 241.13 30.7577 240.475 31.0852C239.82 31.3829 239.492 31.8741 239.492 32.5589Z" fill="#021732"/>
<path fill-rule="evenodd" clip-rule="evenodd" d="M28 63.7524C12.2148 61.784 0 48.3185 0 32C0 14.3269 14.3269 0 32 0C49.6731 0 64 14.3269 64 32C64 45.7324 55.35 57.4445 43.2013 61.9848L38.8091 53.9754C48.1874 51.0728 55 42.332 55 32C55 19.2975 44.7025 9 32 9C19.2975 9 9 19.2975 9 32C9 43.3382 17.2042 52.7602 28 54.6534V63.7524Z" fill="#1C69EA"/>
<path d="M20.5 20V60.5H28V27.5H31.5C41 27.5 35.8333 38.6667 32 42L42.5 60.5L49.5 57L41 42C51.5 22 38 20 30.5 20H20.5Z" fill="#1C69EA"/>
</svg>
