<?xml version="1.0" encoding="UTF-8"?>
<svg width="65px" height="45px" viewBox="0 0 65 45" version="1.1" xmlns="http://www.w3.org/2000/svg" xmlns:xlink="http://www.w3.org/1999/xlink">
    <title>jyst-logo-2018</title>
    <g id="homepage2020" stroke="none" stroke-width="1" fill="none" fill-rule="evenodd" opacity="0.8">
        <g id="Jyst-React-template" transform="translate(-24.000000, -19.000000)" fill="#000000" fill-rule="nonzero">
            <g id="jyst-logo-2018" transform="translate(24.000000, 19.000000)">
                <path d="M28.7288631,0.060550458 C28.6680999,0.0484403664 28.5222681,0.0363302748 28.2913678,0.0242201832 C28.0604674,0.0121100916 27.7080406,0 27.2462399,0 C26.7844392,0 25.751464,0 24.9858471,0 C23.9528719,0 22.8712861,0.0242201832 21.7289371,0.0484403664 C20.586588,0.0726605496 19.5900708,0.157431191 18.7393853,0.30275229 C17.5605784,0.520733939 16.6126717,0.823486229 15.907818,1.19889907 C15.2029644,1.57431191 14.558874,2.10715594 13.9876994,2.78532107 C13.4165249,3.47559629 13.1248613,4.38385316 13.1248613,5.51009168 C13.1248613,5.6190825 13.1491666,5.83706415 13.1977772,6.16403663 C13.2463878,6.4910091 13.343609,6.85431185 13.5137461,7.25394487 C13.6717306,7.65357789 13.9269362,8.05321092 14.2672104,8.46495403 C14.6074846,8.87669714 15.0692852,9.20366962 15.664765,9.44587145 C15.6890703,9.47009163 15.7255283,9.48220172 15.7498336,9.48220172 L15.8835127,9.48220172 C15.944276,9.48220172 15.9685813,9.45798154 15.9685813,9.39743108 C15.9685813,9.33688063 15.9564286,9.31266044 15.944276,9.30055035 C15.9321233,9.28844026 15.9199707,9.2278898 15.9199707,9.11889898 C15.9199707,8.46495403 16.0658025,7.70201826 16.3574661,6.85431185 C16.6491296,6.00660543 17.1109303,5.1952293 17.7428681,4.44440362 C18.3748059,3.69357794 19.1890334,3.03963299 20.1977033,2.50678896 C21.1942205,1.97394493 22.3973328,1.69541282 23.7827348,1.69541282 C24.0136352,1.69541282 24.2202302,1.70752292 24.3782147,1.71963301 C24.5361991,1.7317431 24.6455729,1.74385319 24.7063362,1.74385319 C24.7914047,1.74385319 24.8400153,1.75596328 24.8400153,1.78018347 L24.7549468,1.86495411 C24.7306415,1.88917429 24.7063362,1.92550456 24.7063362,1.94972475 C24.0257878,2.4462385 23.3816974,2.97908253 22.7862176,3.56036693 C22.1785851,4.14165133 21.6195632,4.74715591 21.0848467,5.37688067 C20.5501301,6.00660543 20.0518715,6.64844029 19.5779181,7.29027514 C19.1039648,7.93211 18.6786221,8.56183476 18.30189,9.16733934 C17.3904413,10.57211 16.5762138,12.0011008 15.8713601,13.4543118 C15.3487962,14.6047705 14.7533163,16.0458714 14.0849206,17.7655044 C13.4286776,19.4851374 12.7602818,21.2168805 12.1040388,22.9849539 C11.4477957,24.7409171 10.8037053,26.3999997 10.1839202,27.9743116 C9.56413506,29.5365134 9.05372379,30.7717428 8.59192311,31.6436694 C6.28291973,36.0759629 3.11107824,38.8370638 0,39.2003665 C0.157984442,39.2488069 0.315968884,39.2851372 0.473953326,39.3214674 C1.08158579,39.4546784 1.62845502,39.5394491 2.13886629,39.5636693 C2.63712492,39.5878894 3.01385705,39.5999995 3.24475738,39.5999995 C3.80377926,39.5999995 4.47217497,39.5515592 5.26209718,39.4667885 C6.03986674,39.3820179 6.87839955,39.2003665 7.76554295,38.9097243 C13.1613193,37.1416509 14.8383849,32.1765134 16.5032979,27.3445868 C18.1803635,22.4521098 19.6994446,18.2741282 21.765395,12.9820182 C23.6612083,8.11376137 24.852168,6.03082562 26.7965919,2.97908253 C27.4406823,1.96183484 28.0726201,1.07779815 28.6924052,0.339082565 C28.7531684,0.278532107 28.7774737,0.217981649 28.7774737,0.133211008 C28.8260843,0.0847706412 28.7896264,0.0726605496 28.7288631,0.060550458 Z" id="Path"></path>
                <path d="M34.1212837,27.2993255 C33.9014896,27.8575278 34.4265532,29.49573 34.939406,30.1146064 C35.4522588,30.7456176 36.1482734,31.0489884 37.0396604,31.0489884 C38.2729493,31.0489884 39.2864441,30.7092131 40.1045665,30.0175277 C40.9226888,29.3258424 41.5698602,28.5128087 42.0582915,27.5662918 C42.5467227,26.619775 42.8886246,25.6611233 43.0717863,24.678202 C43.254948,23.7074155 43.3526343,22.9065166 43.3526343,22.299775 C43.3526343,21.6930335 43.3037911,21.0741571 43.2183157,20.4674155 C43.1206294,19.8606739 43.035154,19.3024717 42.9374677,18.8170784 C42.8153599,18.271011 42.6810413,17.7128088 42.5223011,17.1667414 C42.4612472,16.9483144 42.4001933,16.7298874 42.3391394,16.475056 C42.2780855,16.256629 42.2292424,16.0139324 42.2048208,15.7226964 C42.1681885,15.4314605 42.1559777,15.10382 42.1559777,14.7397751 C42.1559777,13.5748313 42.3757718,12.5676403 42.8031491,11.7182021 C43.2305265,10.8687639 43.8288547,10.1528089 44.5737124,9.59460663 C45.3307808,9.02426956 46.2221678,8.61168529 47.2478735,8.33258417 C48.2735791,8.05348305 49.3847602,7.91999991 50.5936275,7.91999991 C51.0820588,7.91999991 51.5827008,7.93213474 52.0955536,7.96853923 C52.6084064,8.00494373 52.852622,8.12629204 52.852622,8.33258417 C52.852622,8.42966282 52.5839849,8.5752808 52.0467105,8.79370776 C51.5094361,9.01213473 50.9233186,9.36404484 50.2761472,9.87370775 C49.6289758,10.3833707 49.0428583,11.0507864 48.5055839,11.8880897 C47.9683096,12.7253931 47.6996724,13.7932583 47.6996724,15.0674156 C47.6996724,15.5528088 47.7485155,16.0017976 47.8584125,16.3901122 C47.9683096,16.7905616 48.0782066,17.2395504 48.2003144,17.7370784 C48.3224222,18.2467414 48.4323192,18.8292133 48.5422163,19.496629 C48.6521133,20.1640447 48.7131672,21.0256177 48.7497996,22.0570784 C48.7742211,22.7851683 48.7131672,23.5860671 48.5422163,24.459775 C48.3712653,25.3334829 47.9560988,26.3042694 47.272295,27.3721345 C47.2356627,27.3721345 47.2234519,27.3842693 47.2234519,27.4206738 L47.2234519,27.5177525 C47.2234519,27.5784266 47.2356627,27.6148311 47.272295,27.6148311 C47.2967166,27.6148311 47.3821921,27.554157 47.5042999,27.4328087 C47.9927311,26.8867413 48.5177947,26.2071907 49.0672799,25.4184267 C49.5557111,24.7510109 50.1296178,23.9379773 50.7767892,22.9914604 C51.4239606,22.0449436 52.0955536,20.9285391 52.8037789,19.6543818 C52.8282005,19.6301121 52.8648328,19.5815728 52.9014652,19.5208987 L52.9991514,19.3388762 L53.13347,19.4723593 C53.1578916,19.5330335 53.1945239,19.6058425 53.2311563,19.6786515 C53.2555778,19.7514604 53.2799994,19.8728088 53.2799994,20.0184267 C53.2799994,20.2004492 53.2311563,20.4431458 53.1456808,20.7465166 C52.9869406,21.3289885 52.6816711,22.0570784 52.2054506,22.9186514 C51.7292302,23.7923593 51.1431127,24.7146065 50.4593089,25.685393 C49.7632944,26.6683143 48.9818044,27.626966 48.1148389,28.5977525 C47.2356627,29.5564042 46.3076433,30.430112 45.3063593,31.2067412 C44.3050752,31.9833704 43.2671588,32.6143816 42.1926101,33.1119097 C41.1180613,33.597303 40.0313018,33.8399996 38.9201207,33.8399996 C37.8089396,33.8399996 36.8809202,33.6458423 36.1360626,33.2453929 C35.3789941,32.8449434 34.7806659,32.3474154 34.3410777,31.728539 C33.9014896,31.1217974 33.5840093,30.4179772 33.4008476,29.641348 C33.2176859,28.8647188 33.1199996,28.0880896 33.1199996,27.3235952 C33.1199996,27.3235952 33.5229554,25.7582019 33.7793818,24.9208986 C34.2922346,25.4912357 34.2922346,26.8746064 34.1212837,27.2993255 Z" id="Path"></path>
                <path d="M64.4205758,9.94590864 L61.5075824,9.94590864 L55.4123275,26.0732084 C55.3511302,26.1701418 55.3021723,26.2791919 55.2776934,26.4003587 C55.216496,26.6426923 55.1797776,26.8850259 55.1797776,27.0910094 C55.1797776,27.6120266 55.4368065,27.8785935 55.9631036,27.8785935 C56.183414,27.8785935 56.5016401,27.7574268 56.9300215,27.5029765 C57.3584029,27.2606429 57.9336579,26.6426923 58.643547,25.6491246 C59.010731,25.1523408 59.402394,24.5949735 59.794057,23.9770229 C60.1367621,23.4560057 60.5039461,22.8138217 60.920088,22.0747043 C61.3362299,21.3355869 61.7646113,20.499536 62.1929926,19.5665518 L62.3276268,19.6998352 C62.4500214,19.821002 62.5112188,20.0269856 62.5112188,20.3056692 C62.5112188,20.463186 62.4745004,20.6691695 62.413303,20.9357365 C62.3521057,21.2023034 62.2419505,21.5052204 62.0950769,21.8444874 C61.0180037,24.0133729 59.9042122,25.8429915 58.7659417,27.3575763 C57.6276712,28.8721612 56.5138796,30.1080625 55.4368065,31.0652801 C54.3597333,32.0224978 53.3560969,32.7252651 52.4136579,33.1735823 C51.4712189,33.6218994 50.6511746,33.8399996 49.9412855,33.8399996 C49.2681147,33.8399996 48.8152544,33.6340161 48.5827045,33.2099323 C48.3501547,32.7979652 48.2399994,32.3375314 48.2399994,31.8407476 C48.2399994,31.5378306 48.3991125,30.8835299 48.7050992,29.8899623 C49.0110859,28.8963946 49.4884251,27.5150932 50.1371169,25.746058 C50.7858087,23.9649062 51.6058531,21.7717873 52.6094894,19.1667013 C53.6131258,16.5616154 54.7881147,13.4718622 56.1466956,9.92167528 L54.3964517,9.92167528 L54.7636357,8.90387424 L56.5138796,8.90387424 C56.73419,8.38285705 56.942261,7.83760649 57.1380925,7.28023926 C57.3339239,6.72287202 57.5664738,6.15338811 57.8112632,5.55967084 C58.1539683,4.63880324 58.6313075,3.89968582 59.2432809,3.35443526 C59.8552543,2.80918471 60.4917066,2.4093343 61.1648773,2.13065069 C61.8258086,1.85196707 62.4622609,1.67021688 63.0864738,1.59751681 C63.6984472,1.52481674 64.2002653,1.46423334 64.5674494,1.43999998 C64.6653651,1.43999998 64.7020835,1.47635002 64.7020835,1.53693342 L61.8870059,8.90387424 L64.7999992,8.90387424 L64.4205758,9.94590864 Z" id="Path"></path>
                <path d="M40.9127241,7.95647673 C40.5494145,7.99295355 40.0650017,8.04158931 39.4473754,8.11454295 C38.8418595,8.18749659 38.2121229,8.3698807 37.5702759,8.63737738 C36.928429,8.91703301 36.3108027,9.31827804 35.7173971,9.85327141 C35.1239914,10.3882648 34.6395786,11.1178012 34.2762691,12.0297217 L30.7521661,21.2461984 C30.4736288,21.9757348 30.1587605,22.7174302 29.7954509,23.4469666 C29.4321413,24.176503 29.0203904,24.8452447 28.5844189,25.4167149 C28.1484474,26.0003441 27.6519243,26.4745427 27.1190703,26.8393109 C26.5862162,27.2040792 26.0170312,27.3864633 25.3994049,27.3864633 C25.1814192,27.3864633 25.0845366,27.2162381 25.0845366,26.8757878 C25.0845366,26.5718143 25.1571986,26.2313639 25.3146327,25.8665957 L31.9874187,8.01727143 C31.9874187,7.95647673 31.9389774,7.91999991 31.8542052,7.91999991 C31.4908956,7.95647673 31.0064828,8.00511249 30.3888565,8.07806613 C29.7833406,8.15101977 29.1414936,8.33340388 28.4875364,8.60090056 C27.8335791,8.88055619 27.2038425,9.28180122 26.5862162,9.81679459 C25.9807003,10.351788 25.5083978,11.0813244 25.1693089,11.9932449 L18.5449642,29.5872314 C18.1816546,30.5964235 17.9999998,31.3867546 17.9999998,31.9703837 C17.9999998,32.4324235 18.0726617,32.7850327 18.2300959,33.0282115 C18.38753,33.2713903 18.5691848,33.4659334 18.7750602,33.5996817 C18.993046,33.7334301 19.1989214,33.8185427 19.4169072,33.8550195 C19.6348929,33.8793374 19.7923271,33.9036552 19.9134303,33.9036552 C20.6763804,33.8671784 21.4877718,33.5753638 22.3354941,33.0160526 C23.1832165,32.4567413 23.9946079,31.7879996 24.757558,31.0463043 C25.5205081,30.29245 26.198686,29.5385957 26.8163123,28.7847414 C27.4218283,28.0187282 27.8820204,27.435099 28.1847784,27.0460129 C28.24533,26.9487414 28.3422126,26.8393109 28.4633157,26.7055626 C28.5844189,26.5718143 28.6813015,26.4988606 28.7418531,26.4988606 C28.7660737,26.4988606 28.7902944,26.5353374 28.7902944,26.5839732 C28.7902944,26.62045 28.7781841,26.632609 28.7660737,26.6569268 C28.7539634,26.6690858 28.7418531,26.6934037 28.7418531,26.7298805 L28.7418531,26.7785162 L24.1762627,38.5970062 C23.8371737,39.4238141 23.582857,40.1047148 23.3285403,40.6153903 C22.3960457,42.500026 20.6642701,44.1901187 19.6712239,44.6399995 C19.7317755,44.6399995 19.7802167,44.6399995 19.8407683,44.6399995 C21.2092344,44.6399995 22.4565973,44.4089796 23.5707467,43.9469399 C24.6848961,43.4849002 25.6779423,42.8404763 26.5619956,42.0258273 C27.4460489,41.1990194 28.2332197,40.2384631 28.9113976,39.1319995 C29.6016858,38.025536 30.1829811,36.8339598 30.6673939,35.5572711 C30.7521661,35.3140923 31.0428138,34.572397 31.5151162,33.3565029 C31.9874187,32.12845 32.6534863,30.4018804 33.5012086,28.1524765 C34.348931,25.9030725 35.4025288,23.1186752 36.6498917,19.7749667 C37.8972546,16.443417 39.3626032,12.5282383 41.0338273,8.02943037 C41.0580479,7.99295355 41.0096066,7.95647673 40.9127241,7.95647673 Z" id="Path"></path>
            </g>
        </g>
    </g>
</svg>